<?xml version="1.0" encoding="UTF-8" standalone="no"?>
<svg
   viewBox="0 0 1500 470"
   role="img"
   aria-label="Logotipo Raiz Digital"
   version="1.1"
   id="svg18"
   sodipodi:docname="_src-logo-escuro.svg"
   xmlns:inkscape="http://www.inkscape.org/namespaces/inkscape"
   xmlns:sodipodi="http://sodipodi.sourceforge.net/DTD/sodipodi-0.dtd"
   xmlns:xlink="http://www.w3.org/1999/xlink"
   xmlns="http://www.w3.org/2000/svg"
   xmlns:svg="http://www.w3.org/2000/svg">
  <defs
     id="defs22" />
  <sodipodi:namedview
     id="namedview20"
     pagecolor="#ffffff"
     bordercolor="#000000"
     borderopacity="0.25"
     inkscape:showpageshadow="2"
     inkscape:pageopacity="0.0"
     inkscape:pagecheckerboard="0"
     inkscape:deskcolor="#d1d1d1" />
  <image
     x="20"
     y="15"
     width="420"
     height="420"
     xlink:href="raiz-digital-simbolo-fundo-escuro.svg"
     id="image2" />
  <line
     x1="470"
     y1="60"
     x2="470"
     y2="410"
     stroke="#00BFA6"
     stroke-width="3"
     opacity="0.7"
     id="line4" />
  <g
     aria-label="RAIZ"
     id="text6"
     style="font-weight:700;font-size:150px;font-family:'DejaVu Sans', Arial, sans-serif;letter-spacing:2;fill:#f2f5f0">
    <path
       d="m 583.83301,149.13574 q 8.8623,0 12.6709,-3.2959 3.88183,-3.29589 3.88183,-10.83984 0,-7.4707 -3.88183,-10.69336 -3.8086,-3.22266 -12.6709,-3.22266 h -11.86524 v 28.05176 z m -11.86524,19.48242 V 210 H 543.76953 V 100.64941 h 43.06641 q 21.60644,0 31.64062,7.25098 10.10742,7.25098 10.10742,22.92481 0,10.83984 -5.27343,17.79785 -5.2002,6.958 -15.74707,10.2539 5.78613,1.31836 10.32714,6.00586 4.61426,4.61426 9.30176,14.0625 L 642.5,210 h -30.0293 l -13.33008,-27.17285 q -4.02832,-8.20313 -8.20312,-11.20606 -4.10156,-3.00293 -10.98633,-3.00293 z"
       id="path64" />
    <path
       d="M 727.62988,190.07812 H 683.53809 L 676.58008,210 h -28.34473 l 40.50293,-109.35059 h 33.61817 L 762.85937,210 h -28.34472 z m -37.06054,-20.28808 h 29.95605 l -14.94141,-43.50586 z"
       id="path66" />
    <path
       d="m 779.36133,100.64941 h 28.19824 V 210 h -28.19824 z"
       id="path68" />
    <path
       d="m 831.8252,100.64941 h 91.91894 v 17.06543 l -58.66699,70.97168 h 60.35156 V 210 h -95.28809 v -17.06543 l 58.667,-70.97168 H 831.8252 Z"
       id="path70" />
  </g>
  <g
     aria-label="DIGITAL"
     id="text8"
     style="font-weight:700;font-size:64px;font-family:'DejaVu Sans', Arial, sans-serif;letter-spacing:23;fill:#00bfa6">
    <path
       d="m 555.90625,262.4375 v 28.46875 h 4.3125 q 7.375,0 11.25,-3.65625 3.90625,-3.65625 3.90625,-10.625 0,-6.9375 -3.875,-10.5625 -3.875,-3.625 -11.28125,-3.625 z M 543.875,253.34375 h 12.6875 q 10.625,0 15.8125,1.53125 5.21875,1.5 8.9375,5.125 3.28125,3.15625 4.875,7.28125 1.59375,4.125 1.59375,9.34375 0,5.28125 -1.59375,9.4375 -1.59375,4.125 -4.875,7.28125 -3.75,3.625 -9,5.15625 -5.25,1.5 -15.75,1.5 H 543.875 Z"
       id="path73" />
    <path
       d="m 620,253.34375 h 12.03125 V 300 H 620 Z"
       id="path75" />
    <path
       d="m 708.75,296.53125 q -4.5,2.1875 -9.34375,3.28125 -4.84375,1.09375 -10,1.09375 -11.65625,0 -18.46875,-6.5 -6.8125,-6.53125 -6.8125,-17.6875 0,-11.28125 6.9375,-17.75 6.9375,-6.46875 19,-6.46875 4.65625,0 8.90625,0.875 4.28125,0.875 8.0625,2.59375 v 9.65625 q -3.90625,-2.21875 -7.78125,-3.3125 -3.84375,-1.09375 -7.71875,-1.09375 -7.1875,0 -11.09375,4.03125 -3.875,4 -3.875,11.46875 0,7.40625 3.75,11.4375 3.75,4.03125 10.65625,4.03125 1.875,0 3.46875,-0.21875 1.625,-0.25 2.90625,-0.75 v -9.0625 H 690 v -8.0625 h 18.75 z"
       id="path77" />
    <path
       d="M 742.34375,253.34375 H 754.375 V 300 h -12.03125 z"
       id="path79" />
    <path
       d="m 783.59375,253.34375 h 43 v 9.09375 H 811.125 V 300 h -12.03125 v -37.5625 h -15.5 z"
       id="path81" />
    <path
       d="m 879.15625,291.5 h -18.8125 L 857.375,300 h -12.09375 l 17.28125,-46.65625 h 14.34375 L 894.1875,300 h -12.09375 z m -15.8125,-8.65625 H 876.125 l -6.375,-18.5625 z"
       id="path83" />
    <path
       d="m 923.375,253.34375 h 12.03125 v 37.5625 h 21.125 V 300 H 923.375 Z"
       id="path85" />
  </g>
  <line
     x1="538"
     y1="337"
     x2="930"
     y2="337"
     stroke="#B86F3C"
     stroke-width="3"
     id="line10" />
  <g
     aria-label="INTELIGÊNCIA AGRONÔMICA"
     id="text12"
     style="font-weight:500;font-size:31px;font-family:'DejaVu Sans', Arial, sans-serif;letter-spacing:5;fill:#f2f5f0">
    <path
       d="m 541.04248,359.40088 h 3.05762 V 382 h -3.05762 z"
       id="path88" />
    <path
       d="m 555.18506,359.40088 h 4.11719 l 10.0205,18.90576 v -18.90576 h 2.9668 V 382 h -4.11719 l -10.0205,-18.90576 V 382 h -2.9668 z"
       id="path90" />
    <path
       d="m 580.24121,359.40088 h 19.11768 v 2.57324 h -8.02246 V 382 h -3.07276 v -20.02588 h -8.02246 z"
       id="path92" />
    <path
       d="m 607.31055,359.40088 h 14.28906 v 2.57324 h -11.23145 v 6.69043 h 10.76221 v 2.57324 h -10.76221 v 8.18897 h 11.50391 V 382 h -14.56152 z"
       id="path94" />
    <path
       d="m 631.89746,359.40088 h 3.05762 v 20.02588 h 11.00439 V 382 h -14.06201 z"
       id="path96" />
    <path
       d="m 654.16846,359.40088 h 3.05761 V 382 h -3.05761 z"
       id="path98" />
    <path
       d="m 683.72021,378.77588 v -6.06983 h -4.99511 v -2.51269 h 8.02246 v 9.70264 q -1.771,1.25634 -3.90527,1.90722 -2.13428,0.63574 -4.55616,0.63574 -5.29785,0 -8.29492,-3.08789 -2.98193,-3.10302 -2.98193,-8.62793 0,-5.54003 2.98193,-8.62793 2.99707,-3.10302 8.29492,-3.10302 2.20996,0 4.19287,0.54492 1.99805,0.54492 3.67823,1.60449 v 3.2544 q -1.69532,-1.43799 -3.60254,-2.16455 -1.90723,-0.72657 -4.01123,-0.72657 -4.14746,0 -6.23633,2.31592 -2.07373,2.31592 -2.07373,6.90234 0,4.57129 2.07373,6.88721 2.08887,2.31592 6.23633,2.31592 1.61963,0 2.89111,-0.27246 1.27148,-0.2876 2.28564,-0.87793 z"
       id="path100" />
    <path
       d="m 697.33301,359.40088 h 14.28906 v 2.57324 h -11.23145 v 6.69043 h 10.76221 v 2.57324 h -10.76221 v 8.18897 h 11.50391 V 382 h -14.56152 z m 5.67627,-6.17578 h 2.8457 l 3.19385,4.02636 h -2.10401 l -2.51269,-2.69433 -2.5127,2.69433 h -2.104 z"
       id="path102" />
    <path
       d="m 721.91992,359.40088 h 4.11719 l 10.02051,18.90576 v -18.90576 h 2.96679 V 382 h -4.11718 L 724.88672,363.09424 V 382 h -2.9668 z"
       id="path104" />
    <path
       d="m 767.03223,361.1416 v 3.22412 q -1.54395,-1.43799 -3.29981,-2.14941 -1.74072,-0.71143 -3.70849,-0.71143 -3.875,0 -5.9336,2.37647 -2.05859,2.36133 -2.05859,6.84179 0,4.46534 2.05859,6.8418 2.0586,2.36133 5.9336,2.36133 1.96777,0 3.70849,-0.71143 1.75586,-0.71142 3.29981,-2.14941 v 3.19385 q -1.6045,1.08984 -3.40577,1.63476 -1.78613,0.54492 -3.78417,0.54492 -5.13135,0 -8.08301,-3.1333 -2.95166,-3.14843 -2.95166,-8.58252 0,-5.44921 2.95166,-8.58252 2.95166,-3.14843 8.08301,-3.14843 2.02832,0 3.81445,0.54492 1.80127,0.52978 3.37549,1.60449 z"
       id="path106" />
    <path
       d="m 776.75488,359.40088 h 3.05762 V 382 h -3.05762 z"
       id="path108" />
    <path
       d="m 798.45068,362.41309 -4.14746,11.24658 h 8.31006 z m -1.72558,-3.01221 h 3.46631 L 808.8042,382 h -3.17871 l -2.0586,-5.79736 H 793.37988 L 791.32129,382 h -3.22412 z"
       id="path110" />
    <path
       d="m 839.51123,362.41309 -4.14746,11.24658 h 8.31006 z m -1.72559,-3.01221 h 3.46631 L 849.86475,382 h -3.17871 l -2.0586,-5.79736 H 834.44043 L 832.38184,382 h -3.22413 z"
       id="path112" />
    <path
       d="m 873.02881,378.77588 v -6.06983 h -4.99512 v -2.51269 h 8.02246 v 9.70264 q -1.77099,1.25634 -3.90527,1.90722 -2.13428,0.63574 -4.55615,0.63574 -5.29786,0 -8.29493,-3.08789 -2.98193,-3.10302 -2.98193,-8.62793 0,-5.54003 2.98193,-8.62793 2.99707,-3.10302 8.29493,-3.10302 2.20996,0 4.19287,0.54492 1.99804,0.54492 3.67822,1.60449 v 3.2544 q -1.69531,-1.43799 -3.60254,-2.16455 -1.90723,-0.72657 -4.01123,-0.72657 -4.14746,0 -6.23633,2.31592 -2.07373,2.31592 -2.07373,6.90234 0,4.57129 2.07373,6.88721 2.08887,2.31592 6.23633,2.31592 1.61963,0 2.89111,-0.27246 1.27149,-0.2876 2.28565,-0.87793 z"
       id="path114" />
    <path
       d="m 897.3584,371.4043 q 0.98389,0.333 1.90722,1.42285 0.93848,1.08984 1.87696,2.99707 L 904.24561,382 h -3.28467 l -2.89112,-5.79736 q -1.12011,-2.27051 -2.17968,-3.01221 -1.04444,-0.7417 -2.86084,-0.7417 h -3.33008 V 382 h -3.05762 v -22.59912 h 6.90235 q 3.875,0 5.78222,1.61963 1.90723,1.61963 1.90723,4.88916 0,2.13428 -0.99903,3.54199 -0.98388,1.40771 -2.87597,1.95264 z m -7.65918,-9.49073 v 8.02247 h 3.84473 q 2.20996,0 3.33007,-1.01417 1.13526,-1.02929 1.13526,-3.0122 0,-1.98291 -1.13526,-2.98194 -1.12011,-1.01416 -3.33007,-1.01416 z"
       id="path116" />
    <path
       d="m 922.354,361.47461 q -3.33007,0 -5.29785,2.48242 -1.95263,2.48242 -1.95263,6.76611 0,4.26856 1.95263,6.75098 1.96778,2.48242 5.29785,2.48242 3.33008,0 5.26758,-2.48242 1.95264,-2.48242 1.95264,-6.75098 0,-4.28369 -1.95264,-6.76611 -1.9375,-2.48242 -5.26758,-2.48242 z m 0,-2.48242 q 4.75293,0 7.59864,3.19385 2.8457,3.17871 2.8457,8.5371 0,5.34327 -2.8457,8.53711 -2.84571,3.17871 -7.59864,3.17871 -4.76806,0 -7.6289,-3.17871 -2.84571,-3.17871 -2.84571,-8.53711 0,-5.35839 2.84571,-8.5371 2.86084,-3.19385 7.6289,-3.19385 z"
       id="path118" />
    <path
       d="m 942.58154,359.40088 h 4.11719 l 10.02051,18.90576 v -18.90576 h 2.9668 V 382 h -4.11719 L 945.54834,363.09424 V 382 h -2.9668 z"
       id="path120" />
    <path
       d="m 979.94385,361.47461 q -3.33008,0 -5.29785,2.48242 -1.95264,2.48242 -1.95264,6.76611 0,4.26856 1.95264,6.75098 1.96777,2.48242 5.29785,2.48242 3.33008,0 5.26758,-2.48242 1.95263,-2.48242 1.95263,-6.75098 0,-4.28369 -1.95263,-6.76611 -1.9375,-2.48242 -5.26758,-2.48242 z m 0,-2.48242 q 4.75293,0 7.59863,3.19385 2.8457,3.17871 2.8457,8.5371 0,5.34327 -2.8457,8.53711 -2.8457,3.17871 -7.59863,3.17871 -4.76807,0 -7.62891,-3.17871 -2.8457,-3.17871 -2.8457,-8.53711 0,-5.35839 2.8457,-8.5371 2.86084,-3.19385 7.62891,-3.19385 z M 978.521,353.2251 h 2.8457 l 3.19385,4.02636 h -2.10401 l -2.51269,-2.69433 -2.5127,2.69433 h -2.104 z"
       id="path122" />
    <path
       d="m 1000.1714,359.40088 h 4.5561 l 5.7671,15.37891 5.7974,-15.37891 h 4.5561 V 382 h -2.9819 v -19.84424 l -5.8276,15.5 h -3.0728 l -5.8276,-15.5 V 382 h -2.9668 z"
       id="path124" />
    <path
       d="m 1031.918,359.40088 h 3.0576 V 382 h -3.0576 z"
       id="path126" />
    <path
       d="m 1062.9834,361.1416 v 3.22412 q -1.5439,-1.43799 -3.2998,-2.14941 -1.7407,-0.71143 -3.7085,-0.71143 -3.875,0 -5.9336,2.37647 -2.0586,2.36133 -2.0586,6.84179 0,4.46534 2.0586,6.8418 2.0586,2.36133 5.9336,2.36133 1.9678,0 3.7085,-0.71143 1.7559,-0.71142 3.2998,-2.14941 v 3.19385 q -1.6045,1.08984 -3.4058,1.63476 -1.7861,0.54492 -3.7841,0.54492 -5.1314,0 -8.0831,-3.1333 -2.9516,-3.14843 -2.9516,-8.58252 0,-5.44921 2.9516,-8.58252 2.9517,-3.14843 8.0831,-3.14843 2.0283,0 3.8144,0.54492 1.8013,0.52978 3.3755,1.60449 z"
       id="path128" />
    <path
       d="m 1080.2593,362.41309 -4.1475,11.24658 h 8.3101 z m -1.7256,-3.01221 H 1082 L 1090.6128,382 h -3.1787 l -2.0586,-5.79736 h -10.187 L 1073.1299,382 h -3.2241 z"
       id="path130" />
  </g>
  <g
     aria-label="by Vorium"
     id="text16"
     style="font-size:25px;font-family:'DejaVu Sans', Arial, sans-serif;fill:#f2f5f0">
    <path
       d="m 1204.1704,410.17627 q 0,-2.47803 -1.0254,-3.88184 -1.0132,-1.41601 -2.7954,-1.41601 -1.7822,0 -2.8076,1.41601 -1.0132,1.40381 -1.0132,3.88184 0,2.47803 1.0132,3.89404 1.0254,1.40381 2.8076,1.40381 1.7822,0 2.7954,-1.40381 1.0254,-1.41601 1.0254,-3.89404 z m -7.6416,-4.77295 q 0.708,-1.2207 1.7822,-1.80664 1.0865,-0.59814 2.5879,-0.59814 2.4903,0 4.0406,1.97753 1.5625,1.97754 1.5625,5.2002 0,3.22266 -1.5625,5.20019 -1.5503,1.97754 -4.0406,1.97754 -1.5014,0 -2.5879,-0.58593 -1.0742,-0.59815 -1.7822,-1.81885 V 417 h -2.2583 v -18.99414 h 2.2583 z"
       id="path133" />
    <path
       d="m 1215.9136,418.26953 q -0.9522,2.44141 -1.8555,3.18604 -0.9033,0.74463 -2.417,0.74463 h -1.7944 v -1.87989 h 1.3183 q 0.9278,0 1.4405,-0.43945 0.5127,-0.43945 1.1352,-2.0752 l 0.4029,-1.02539 -5.5298,-13.45215 h 2.3803 l 4.2725,10.69336 4.2725,-10.69336 h 2.3803 z"
       id="path135" />
    <path
       d="m 1230.7329,398.7749 h 4.7241 l 4.834,13.45215 4.8218,-13.45215 h 4.7241 L 1243.0864,417 h -5.603 z"
       style="font-weight:700"
       id="path137" />
    <path
       d="m 1257.1978,406.12354 q -1.4527,0 -2.2217,1.0498 -0.7569,1.0376 -0.7569,3.00293 0,1.96533 0.7569,3.01514 0.769,1.03759 2.2217,1.03759 1.4282,0 2.185,-1.03759 0.7568,-1.04981 0.7568,-3.01514 0,-1.96533 -0.7568,-3.00293 -0.7568,-1.0498 -2.185,-1.0498 z m 0,-3.125 q 3.5278,0 5.5053,1.90429 1.9898,1.9043 1.9898,5.27344 0,3.36914 -1.9898,5.27344 -1.9775,1.90429 -5.5053,1.90429 -3.5401,0 -5.542,-1.90429 -1.9898,-1.9043 -1.9898,-5.27344 0,-3.36914 1.9898,-5.27344 2.0019,-1.90429 5.542,-1.90429 z"
       style="font-weight:700"
       id="path139" />
    <path
       d="m 1278.0229,407.05127 q -0.5737,-0.26856 -1.1474,-0.39063 -0.5615,-0.13427 -1.1353,-0.13427 -1.6845,0 -2.6001,1.08642 -0.9033,1.07422 -0.9033,3.08838 V 417 h -4.3701 v -13.67188 h 4.3701 v 2.2461 q 0.8423,-1.34277 1.9287,-1.95313 1.0987,-0.62255 2.6245,-0.62255 0.2198,0 0.4761,0.0244 0.2564,0.0122 0.7446,0.0732 z"
       style="font-weight:700"
       id="path141" />
    <path
       d="m 1280.1958,403.32812 h 4.3701 V 417 h -4.3701 z m 0,-5.32226 h 4.3701 v 3.56445 h -4.3701 z"
       style="font-weight:700"
       id="path143" />
    <path
       d="m 1288.6187,411.67773 v -8.34961 h 4.3945 v 1.36719 q 0,1.11084 -0.012,2.79541 -0.012,1.67237 -0.012,2.23389 0,1.64795 0.085,2.38037 0.085,0.72022 0.293,1.04981 0.2685,0.42724 0.6958,0.65917 0.4394,0.23194 1.001,0.23194 1.3672,0 2.1484,-1.04981 0.7813,-1.0498 0.7813,-2.91748 v -6.75049 h 4.3701 V 417 h -4.3701 v -1.97754 q -0.9888,1.19629 -2.0997,1.77002 -1.0986,0.56152 -2.4292,0.56152 -2.3681,0 -3.6132,-1.45263 -1.2329,-1.45264 -1.2329,-4.22364 z"
       style="font-weight:700"
       id="path145" />
    <path
       d="m 1319.2339,405.59863 q 0.8301,-1.26953 1.9653,-1.92871 1.1475,-0.67138 2.5147,-0.67138 2.3559,0 3.5888,1.45263 1.2329,1.45264 1.2329,4.22363 V 417 h -4.3945 v -7.12891 q 0.012,-0.15869 0.012,-0.32959 0.012,-0.17089 0.012,-0.48828 0,-1.45263 -0.4272,-2.09961 -0.4273,-0.65918 -1.3794,-0.65918 -1.2451,0 -1.9287,1.02539 -0.6714,1.02539 -0.6958,2.96631 V 417 h -4.3946 v -7.12891 q 0,-2.2705 -0.3906,-2.91748 -0.3906,-0.65918 -1.3916,-0.65918 -1.2573,0 -1.9409,1.0376 -0.6836,1.02539 -0.6836,2.9419 V 417 h -4.3945 v -13.67188 h 4.3945 v 2.00196 q 0.8057,-1.15967 1.8433,-1.74561 1.0498,-0.58593 2.3071,-0.58593 1.416,0 2.5024,0.68359 1.0865,0.68359 1.648,1.9165 z"
       style="font-weight:700"
       id="path147" />
  </g>
</svg>
