<svg xmlns="http://www.w3.org/2000/svg" viewBox="0 0 512 512">
  <rect width="512" height="512" rx="96" fill="#10231F" />
  <g fill="none" stroke="#00bfa6" stroke-width="14" stroke-linecap="round" stroke-linejoin="round">
    <path d="m 82,92 78,-24 h 90 l 84,32" />
    <path d="m 61,151 84,-26 h 95 l 109,29" />
    <path d="m 50,214 90,-20 h 95 l 115,22" />
    <path d="M 82,92 61,151 50,214" />
    <path d="m 160,68 -15,57 -5,69" />
    <path d="m 250,68 -10,57 -5,69" />
    <path d="m 334,100 15,54 1,62" />
  </g>
  <g fill="#34d9d0">
    <circle cx="82" cy="92" r="11" />
    <circle cx="160" cy="68" r="11" />
    <circle cx="250" cy="68" r="11" />
    <circle cx="334" cy="100" r="11" />
    <circle cx="61" cy="151" r="11" />
    <circle cx="145" cy="125" r="11" />
    <circle cx="240" cy="125" r="11" />
    <circle cx="349" cy="154" r="11" />
    <circle cx="50" cy="214" r="11" />
    <circle cx="140" cy="194" r="11" />
    <circle cx="235" cy="194" r="11" />
    <circle cx="350" cy="216" r="11" />
  </g>
  <path fill="#F2F5F0" d="M172 151 H295 C349 151 381 179 381 225 C381 263 358 289 321 300 L393 414 H313 L250 309 H240 V414 H172 V216 H240 V254 H291 C309 254 320 243 320 226 C320 210 309 201 291 201 H172 Z" />
  <g fill="none" stroke="#b86f3c" stroke-width="14" stroke-linecap="round" stroke-linejoin="round">
    <path d="M 172,189 V 292" />
    <path d="M 172,292 82,363" />
    <path d="M 172,292 121,411" />
    <path d="M 172,292 V 445" />
    <path d="m 172,292 60,128" />
    <path d="m 172,292 111,78" />
  </g>
  <g fill="#b86f3c">
    <circle cx="172" cy="189" r="14" />
    <circle cx="172" cy="292" r="14" />
    <circle cx="82" cy="363" r="11" />
    <circle cx="121" cy="411" r="11" />
    <circle cx="172" cy="445" r="11" />
    <circle cx="232" cy="420" r="11" />
    <circle cx="283" cy="370" r="11" />
  </g>
</svg>
